<svg width="785" height="164" xmlns="http://www.w3.org/2000/svg"><path d="M79.656 164.036l-15.441-8.713-7.426-5.152-9.576-7.448-9.05-8.566-8.395-9.621-9.439-12.68-6.56-12.44-4.76-10.732-4.824-14.542L1.41 58.848 0 47.145V30.874l.65-4.976 14.52-9.207 14.598-7.077 13.408-4.69 16.202-3.228 7.654-1L87.254 0l13.975 1.517 12.46 2.69 19.35 6.841 14.109 7.595 11.875 8.369.647 13.773-1.303 14.756-2.55 13.76-5.068 18.745-11.117 22.624-14.225 19.21-11.719 11.577-17.05 12.97-10.17 5.99-6.812 3.62zm.162-8.146l9.567-5.227 9.949-6.795 10.911-9.118 10.956-10.412 7.328-9.943 6.793-10.115 4.761-9.706 4.685-12.266 4.501-13.619 1.697-10.597 1.834-14.417V30.779l-5.654-3.64-10.34-5.97-10.809-5.183-14.455-4.924-15.118-3.268-10.258-.849H76.083l-12.018.849-13.713 2.246-10.635 3.316-10.858 4.368-12.262 6.14-9.382 6.19v18.93l1.888 12.714L11.5 72.945l3.22 10.041 4.405 12.065 5.815 10.366 6.047 9.521 6.828 8.208 6.744 7.736 8.572 7.815 8.257 6.31 18.43 10.883zM54.902 15.663l7.107 2.524-1.49 3.982-1.69 5.563-1.6 6.345-1.16 5.341-.365 3.534-.409 3.217 4.52-1.42 6.821-.714h5.599l5.241 1.428 3.097 1.22 3.907-1.934 6.26-.714h6.033l4.724 1.428 3.05.706-.434-3.59-.708-5.638-1.908-5.768-2.003-6.82-2.721-6.166 7.34-2.987 1.992 3.9 3.592 8.632 3.526 10.165 1.425 6.138.423 4.447v3.267l5.983 4.25 3.903 3.593 5.17 5.308 5.509 6.575 2.98 4.038 1.794 2.332-5.358 4.812-3.214-3.067-3.83-4.077-3.051-3.122-3.903-3.224-4.608-4.267-1.798-.955-.652 2.65-.773 2.572-1.07 2.308-2.456 4.038-2.576 4.077-2.574 3.067-2.398 1.833-.652 3.517-.807 3.816-1.944 3.917-2.691 4.494-3.43 3.99-2.418 2.298 5.848 2.194 5.079 1.557 5.987 1.577 6.102 1.356 3.99.626-.767 7.018h-6.75l-5.15-.692-5.052-.99-3.44-.704-5.847-1.394-5.727-1.909-4.354-1.955-3.669 1.63-6.075 2.234-6.804 2.097-5.364.991-6.247.692-4.89.689-2.827.388-1.343-7.091 6.891-1.63 7.104-1.783 4.168-1.15 4.221-1.557 4.703-2.194-4.703-4.485-3.282-4.607-2.193-3.846-1.602-4.86-.338-4.234-2.974-3.042-3.888-4.613-3.067-5.36-.87-3.397-1.136-4.133-4.661 3.342-6.367 5.647-5.386 5.896-5.075 5.66-5.294-4.9 5.294-7.56 6.596-8.085L38.775 56l5.475-4.25 1.03-7.715 1.798-8.973 2.72-7.33 2.496-5.563 2.608-6.506zm12.087 40.07h-4.41l-4.237 1.109-2.5 1.286.73 4.777 1.77 3.587.876 2.38 2.197-4.865 1.164-2.705 2.018-2.714 2.392-2.855zm25.582-.051l3.942 5.15 2.173 4.14 1.747 4.024 1.805-4.023 1.24-2.634.914-3.8-2.154-1.296-3.757-1.03-5.91-.531zm-12.73 4.325l-3.72 3.016-3.106 3.77-1.927 3.706-1.35 3.474-.822 3.45 4.594 1.703 4.372.954h4.994l4.072-.954 3.697-1.704-1.091-4.482-2.606-5.232-3.09-4.685-4.018-3.016zm-8.145 30.68l1.67 3.361 2.214 2.501 4.258 4.175 2.024-1.738 4.04-4.577 2.078-3.723-2.905.66-4.885.36-5.227-.36-3.267-.66zM225.49 46.54h27.876l16.892 31.03 14.805 26.938 13.85 24.762h-25.148l-9.43-17.044h-49.707l-9.299 17.044H180l45.49-82.73zm13.846 21.192l-13.82 24.938 27.64.191-13.82-25.129zM325 46l74.617 1 11.156 2.354 10.933 8.005 4.872 9.642V78.18l-1.82 9.19-4.052 5.696-6.885 5.292-3.048 1.77 9.608 13.47 10.708 15.054h-27.233l-19.28-25.919h-35.439v25.92H325V46zm24 20v17.58h37.59l10.125-1.198 3.74-2.797 3.487-3.988-1.238-5.543L396.715 66H349zm124-20h23.727v82.332H473V46zm94.61 0h26.79l45.78 82.168h-25.247l-8.935-16.48h-49.337l-9.463 16.48H522L567.61 46zm13.893 21L567 92.78h28.047L581.503 67zM647 46h101.824v19.902h-39.015v62.696h-23.75V65.902H647V46zm122.084 4.066l2.484-2.846 2.81-1.22h3.44l3.036 1.22 2.208 2.395 1.125 2.726v2.721l-.328 2.884-1.288 2.118-2.244 1.624-1.826 1.05h-4.476l-.659-.284-1.469-.766-1.514-1.265-1.3-1.645-.67-1.383-.413-1.85v-2.077l.412-1.511.672-1.89zm6.036-2.055l-2.232.846-1.491 1.176-1.058 1.798-.637 1.338v1.88l.28 1.694.932 1.725 1.248 1.154 1.58 1.114h3.396l2.02-.348 1.945-1.456 1.012-1.86.608-2.969-.364-2.272-1.256-1.798-1.497-1.176-1.187-.631-.897-.215h-2.402zm-2.017 1.766l5.668-.216 1.164.88c.303.515.468.868.496 1.058.027.19.027.477 0 .86l-.121.998-.375.731-1.006.71-1.089.258 2.59 4.077-1.833.07-2.242-3.884h-1.439v3.814h-1.813v-9.356zm1.676 1.166v2.807h3.162l.91-1.066-.31-1.281-.901-.46h-2.861z" fill="#252525" fill-rule="evenodd"/></svg>
