<svg width="312" height="57" viewBox="0 0 312 57" fill="none" xmlns="http://www.w3.org/2000/svg">
<g clip-path="url(#clip0)">
<path d="M42.9945 40.2469C43.8004 40.4079 44.5853 40.6602 45.3341 40.9989C45.5023 41.1187 45.6304 41.2865 45.7017 41.4803C45.7731 41.6741 45.7843 41.8849 45.734 42.0851C44.6153 45.7936 43.6949 49.559 42.9766 53.3654C42.8095 54.4516 42.3797 54.7022 41.4725 54.8694C40.7205 54.9529 39.7178 54.9529 36.2084 54.9529C32.8662 54.9529 28.8554 54.7023 13.8987 54.7023C8.80172 54.7023 4.45678 55.12 2.61852 55.2991C2.02169 55.2991 1.61584 55.2991 1.42485 55.1379C1.17418 54.4695 0.828006 52.9655 1.00706 52.4641C4.58807 51.7957 7.19028 50.787 7.60806 48.5369C7.85873 46.9494 8.10942 44.5202 8.10942 36.6718V20.1932C8.10942 13.1685 7.77519 8.74589 7.3574 6.07207C7.10673 4.56804 6.43827 4.06669 0.672831 4.23381C0.505716 4.23381 0.171498 3.73247 0.42217 2.90287L1.01901 1.14817C1.10256 0.807978 1.18612 0.807973 1.35323 0.807973C4.5284 0.897499 7.78713 0.975084 11.1294 0.897495C16.3935 0.80797 21.574 0.557299 25.5012 0.300659C25.919 0.384216 26.2532 2.8969 26.1697 3.28484C23.1855 3.88167 19.318 4.20398 18.8167 7.04492C18.3989 9.30095 18.2198 12.7268 18.3153 21.5003L18.3989 31.9449C18.4824 43.9771 18.566 46.6569 18.7331 48.2385C18.9002 49.8201 19.1509 50.3274 20.4878 50.7393C21.8247 51.1511 22.9945 51.3361 26.7546 51.3361C32.52 51.3361 37.7005 50.5841 40.2072 46.2332C40.8757 45.1529 41.4606 43.4817 42.0455 40.8019C42.2126 40.3066 42.3797 40.2051 42.8811 40.2051L42.9945 40.2469Z" fill="#212121"/>
<path d="M69.8933 21.1959C72.5671 21.1959 75.993 22.2822 77.9148 24.0369C79.8305 25.9287 81.2139 28.2919 81.9256 30.8885C83.346 30.6379 83.9309 30.5543 84.1816 30.8885C84.3167 30.993 84.4142 31.1386 84.4594 31.3033C84.5046 31.468 84.4951 31.6429 84.4323 31.8017C84.1816 32.6373 83.346 34.3144 82.2598 34.7322C79.2756 35.8184 66.8077 38.158 63.6325 38.9936C63.2923 39.0771 63.0357 39.2443 63.0357 40.4141C63.0425 41.5855 63.2825 42.7438 63.7415 43.8216C64.2006 44.8994 64.8696 45.875 65.7095 46.6916C66.5494 47.5082 67.5435 48.1494 68.6338 48.578C69.724 49.0065 70.8887 49.2137 72.0598 49.1875C75.7527 49.1888 79.3078 47.7847 82.0031 45.2604C82.7552 44.6635 83.8414 44.6635 83.8414 45.1768C83.6743 47.8506 83.34 48.4355 82.6477 48.9428C78.3027 52.3567 74.7098 54.1114 71.7853 55.0306C70.5582 55.3485 69.2923 55.4912 68.0252 55.4543C61.1735 55.4543 57.4135 51.8733 56.1601 50.3573C53.8609 47.455 52.6001 43.8661 52.5791 40.1634C52.5791 32.8104 56.5898 27.2896 62.3553 23.7862C64.9515 22.1927 67.8701 21.1959 69.7919 21.1959H69.8933ZM72.6507 32.3926C72.6507 28.4654 70.3947 24.7889 67.8044 24.7889C67.0796 24.8508 66.3858 25.1109 65.799 25.5409C64.2115 26.7346 62.5403 31.7241 62.8149 35.902C67.2434 35.0724 69.9172 34.4875 71.6779 34.1473C72.3463 33.8966 72.6746 33.4012 72.6746 32.4761V32.3926H72.6507Z" fill="#212121"/>
<path d="M107.577 55.2155C101.806 54.8813 96.7986 54.8813 91.5345 54.9648C91.0332 54.9648 90.8661 54.8813 90.699 54.4635C90.5318 54.0457 90.2812 52.291 90.5318 51.8672C93.707 51.539 95.3781 50.6736 95.9033 47.194C96.6613 41.4226 96.7389 34.6605 97.097 26.8061L97.849 7.67155C97.9266 4.57994 96.0943 3.99504 91.0809 3.32659C91.2529 2.59226 91.5346 1.88805 91.9165 1.23766C92.0836 0.986989 92.1672 0.640824 92.6625 0.640824C93.6652 0.640824 98.9293 0.807937 101.436 0.807937C103.531 0.807937 105.697 0.730346 106.808 0.730346C107.048 2.29621 107.527 3.81595 108.228 5.23647C111.905 13.0908 120.35 27.4686 126.026 37.4656C126.36 38.0624 126.784 38.2236 127.219 37.388C132.477 27.1105 139.329 13.9145 143.173 5.15888C143.652 3.75257 143.961 2.29381 144.092 0.813911C150.609 0.813911 157.885 0.563232 159.89 0.563232C159.968 1.5923 159.968 2.62577 159.89 3.65484C155.456 4.15618 154.519 4.57397 154.453 6.99712C154.286 10.5065 154.286 15.1857 154.542 25.9586C154.704 33.5682 154.542 42.5924 154.704 44.6813C155.205 50.3632 155.121 50.6974 160.218 51.7001C160.475 51.7001 160.636 53.1206 160.636 53.8726C160.636 54.374 160.475 54.547 160.141 54.547H151.373C149.201 54.547 142.934 54.7082 139.437 55.1439V53.1385C139.437 52.4701 139.598 52.0523 140.033 51.9448C143.37 51.1093 143.537 50.9421 143.877 47.9341C144.122 45.7676 144.038 41.0824 144.707 12.0881C144.707 11.169 144.038 11.5868 143.787 12.1717C142.868 13.5086 134.763 31.1451 131.087 39.0771C127.082 47.6834 125.662 51.1988 125.244 51.9448C124.319 54.0338 123.99 54.7022 122.904 54.7022C122.57 54.7022 122.152 54.4515 121.812 53.7831C121.311 53.1146 119.311 49.0084 117.037 44.174C109.517 28.2982 104.247 18.1042 101.161 11.4197C101.078 19.3576 100.988 30.6378 101.161 39.471C101.239 44.4784 101.329 47.9102 101.573 49.4143C102.081 50.9183 103 51.5867 106.008 52.0881C106.843 52.2552 107.339 52.4223 107.428 52.7565L107.595 55.1797L107.577 55.2155Z" fill="#212121"/>
<path d="M171.833 28.2982C171.833 27.8804 171.326 27.6297 168.067 26.8777C167.733 26.7942 167.572 26.633 167.9 25.7915C168.312 24.5381 168.401 24.377 168.825 24.2875C171.809 23.3683 177.509 21.7808 180.941 20.611C181.178 20.5124 181.43 20.4559 181.687 20.4438C181.938 20.4438 182.021 20.6945 181.938 21.4465C181.597 26.9613 181.102 38.7547 181.102 43.0818C181.102 46.6628 181.019 48.3519 181.186 49.5993C181.353 50.8467 181.597 51.1988 182.684 51.1093C183.57 50.9662 184.466 50.8825 185.364 50.8586C185.614 50.8586 186.032 51.3599 186.032 51.6941L185.698 54.2009C185.698 54.8693 185.453 54.8693 184.862 54.8693C181.687 54.8693 178.422 54.7022 175.259 54.7022C172.882 54.7219 170.508 54.8893 168.151 55.2035C168.008 55.2202 167.863 55.188 167.741 55.1121C167.618 55.0363 167.525 54.9213 167.476 54.7858C167.406 54.1198 167.382 53.4497 167.405 52.7804C167.405 52.4462 167.649 52.3567 168.002 52.2791C170.341 51.7777 171.583 51.5271 171.756 49.1875C171.851 47.8506 172.263 42.1746 172.096 36.9046L171.851 28.2982H171.833ZM178.685 2.90283C181.597 2.90283 183.197 5.23646 183.197 7.73721C183.219 8.44293 183.1 9.14596 182.845 9.80444C182.59 10.4629 182.205 11.0634 181.713 11.5701C181.222 12.0769 180.633 12.4795 179.983 12.7541C179.332 13.0286 178.633 13.1696 177.927 13.1684C175.593 13.1684 173.415 11.2526 173.415 8.2445C173.395 7.55117 173.514 6.86088 173.765 6.21437C174.017 5.56786 174.395 4.97823 174.878 4.48031C175.361 3.98239 175.938 3.58628 176.577 3.31534C177.215 3.0444 177.902 2.90414 178.595 2.90283H178.685Z" fill="#212121"/>
<path d="M209.589 21.1959C212.274 21.1959 215.694 22.2822 217.616 24.0369C219.532 25.9297 220.917 28.2924 221.633 30.8885C223.047 30.6379 223.632 30.5543 223.883 30.8885C224.016 30.9948 224.111 31.1404 224.157 31.3044C224.202 31.4684 224.194 31.6425 224.134 31.8017C223.883 32.6373 223.047 34.3144 221.955 34.7322C218.971 35.8184 206.503 38.158 203.322 38.9936C203 39.0771 202.725 39.2443 202.725 40.4141C202.733 41.5861 202.975 42.7447 203.435 43.8225C203.896 44.9003 204.566 45.8758 205.407 46.6923C206.247 47.5087 207.242 48.1498 208.333 48.5781C209.424 49.0065 210.589 49.2137 211.761 49.1875C215.45 49.1876 219.001 47.7834 221.692 45.2604C222.45 44.6635 223.537 44.6635 223.537 45.1768C223.364 47.8506 223.035 48.4355 222.343 48.9428C217.998 52.3567 214.405 54.1114 211.475 55.0306C210.252 55.3485 208.99 55.4912 207.727 55.4543C200.869 55.4543 197.109 51.8733 195.855 50.3573C193.556 47.455 192.295 43.8661 192.274 40.1634C192.274 32.8104 196.285 27.2896 202.057 23.7862C204.647 22.1927 207.565 21.1959 209.499 21.1959H209.589ZM212.346 32.3926C212.346 28.4654 210.09 24.7889 207.512 24.7889C206.786 24.848 206.092 25.1084 205.506 25.5409C203.907 26.7346 202.242 31.7241 202.486 35.902C206.921 35.0724 209.589 34.4875 211.349 34.1473C212.024 33.8966 212.346 33.4012 212.346 32.4761V32.3926Z" fill="#212121"/>
<path d="M242.093 20.9452C242.6 20.9452 242.761 21.2794 242.929 22.3657C243.023 24.3151 242.997 26.2684 242.851 28.2146C242.672 32.4761 242.511 38.7488 242.427 43.8398C242.344 49.2113 246.689 49.9335 248.109 49.9335C249.897 49.9059 251.637 49.3561 253.117 48.3519C253.442 48.2127 253.719 47.9803 253.912 47.6839C254.105 47.3875 254.207 47.0406 254.203 46.6867C254.574 43.2998 254.745 39.8939 254.716 36.4868C254.716 29.9753 254.543 28.3877 254.292 27.7133C253.952 26.8777 253.206 26.633 250.711 26.0422C250.114 25.875 249.792 25.7139 249.631 25.2901C249.44 24.8126 249.355 24.2997 249.38 23.7861C249.38 23.5295 249.38 23.3683 249.703 23.2848C253.79 22.5328 257.927 22.0839 262.081 21.9419C263.496 21.9419 263.997 22.2821 264.086 22.9565C264.243 24.2574 264.296 25.5685 264.248 26.8777C264.248 29.0502 263.913 32.4761 263.913 37.6566V44.8186C263.898 46.5533 264.01 48.2868 264.248 50.0051C264.337 50.4169 264.659 50.6676 264.922 50.602C265.334 50.5124 267.309 50.0051 268.67 49.6828C269.01 49.5933 269.595 50.3513 269.506 50.7631C269.01 53.3593 268.67 53.5264 268.085 53.61C264.177 54.1021 260.32 54.941 256.56 56.1167C255.725 56.2838 255.313 56.3614 254.639 55.6154C254.44 55.438 254.283 55.2184 254.179 54.9726C254.076 54.7269 254.029 54.4612 254.042 54.1949L254.203 50.7631C252.955 51.4375 250.455 53.0251 248.109 54.2844C246.104 55.2752 244.767 55.7049 243.096 55.7049C239.831 55.7049 236.405 54.7798 234.489 51.6046C233.617 49.902 233.206 48.0008 233.296 46.0899C233.296 40.6587 233.552 34.9708 233.379 29.5396C233.296 28.3817 233.296 27.7909 230.538 26.5554C230.126 26.3048 229.792 25.9586 229.452 24.7172C229.362 24.1204 229.452 23.8816 230.377 23.631C232.209 23.1296 241.072 20.9571 241.992 20.9571L242.093 20.9452Z" fill="#212121"/>
<path d="M274.853 23.0342C274.853 22.6164 275.097 22.2822 275.348 22.2822C277.27 22.3657 279.114 22.3657 283.286 22.3657C285.626 22.3657 289.057 22.1926 292.4 22.1926C292.624 23.0483 292.592 23.9507 292.31 24.7889C290.138 25.2902 289.887 25.714 290.722 27.0449C291.725 28.7101 292.895 30.5543 294.817 33.3117C295.736 32.4761 299.747 27.3791 299.657 26.3765C299.657 25.7796 298.989 25.3738 296.154 24.6277C296.342 23.7762 296.651 22.9561 297.073 22.1926C298.577 22.1926 302.003 22.121 304.599 22.0315C307.195 21.942 309.374 21.8644 310.776 21.8644C311.277 21.8644 311.278 21.942 311.188 22.4612C310.776 24.2995 310.591 24.5502 309.994 24.7173C307.488 25.2186 306.073 26.3049 303.907 28.2983C300.326 31.6406 298.804 33.5624 296.798 35.5677C296.548 35.8184 296.709 36.3138 297.132 36.9882C298.553 39.5785 301.806 44.7471 303.566 47.2657C305.655 50.1902 306.24 50.9422 310.334 51.9449C311.164 52.112 311.343 52.4463 311.164 52.9476C310.924 53.4971 310.647 54.0295 310.334 54.5411C310.167 54.953 309.917 55.0306 309.332 55.0306C307.828 54.953 304.987 54.7023 301.394 54.7023C297.216 54.7859 292.955 55.0306 292.125 55.0306C291.608 54.1697 291.207 53.2447 290.931 52.2791C292.018 51.7778 293.916 51.1989 293.85 50.3573C293.85 49.0144 290.764 43.5832 289.672 42.0852C288.478 43.2789 283.99 48.9428 283.99 50.4409C284.074 50.9422 284.659 51.2705 287.249 51.8554C287.5 52.0285 287.416 54.1114 287.249 54.4516C287.064 54.6183 286.823 54.708 286.574 54.7023C280.236 54.7023 278.141 54.8694 276.058 55.0306C275.724 55.0306 275.551 55.0306 275.39 54.7859C275.229 54.5412 274.966 53.9503 274.638 53.2759C274.577 53.1726 274.537 53.0582 274.52 52.9394C274.504 52.8206 274.511 52.6997 274.542 52.5836C274.572 52.4676 274.625 52.3589 274.698 52.2636C274.771 52.1683 274.862 52.0883 274.966 52.0285C276.219 51.0198 276.56 50.6916 277.891 49.5218C279.985 47.6 284.074 43.5056 287.44 39.9127C287.774 39.4949 287.864 39.0771 287.44 38.3251C281.507 28.7101 280.505 26.4541 275.575 24.7889C275.073 24.6277 274.829 24.4487 274.829 23.8697V23.0342H274.853Z" fill="#212121"/>
</g>
<defs>
<clipPath id="clip0">
<rect width="310.88" height="55.9295" fill="white" transform="translate(0.374023 0.306641)"/>
</clipPath>
</defs>
</svg>
